<?xml version="1.0" standalone="no"?><!-- Generator: Gravit.io --><svg xmlns="http://www.w3.org/2000/svg" xmlns:xlink="http://www.w3.org/1999/xlink" style="isolation:isolate" viewBox="610.92 491.08 362.64 42.84" width="362.64" height="42.84"><defs><clipPath id="_clipPath_wSvgGvX4Xu6Mm9Y8ZLePTMIYc3oDxwAS"><rect x="610.92" y="491.08" width="362.64" height="42.84"/></clipPath></defs><g clip-path="url(#_clipPath_wSvgGvX4Xu6Mm9Y8ZLePTMIYc3oDxwAS)"><path d=" M 643.26 522.46 L 643.26 522.46 L 644.22 531.94 L 644.22 531.94 Q 638.46 533.92 629.7 533.92 L 629.7 533.92 L 629.7 533.92 Q 619.38 533.92 615.15 529.12 L 615.15 529.12 L 615.15 529.12 Q 610.92 524.32 610.92 512.5 L 610.92 512.5 L 610.92 512.5 Q 610.92 500.68 615.15 495.88 L 615.15 495.88 L 615.15 495.88 Q 619.38 491.08 629.7 491.08 L 629.7 491.08 L 629.7 491.08 Q 637.44 491.08 643.32 492.7 L 643.32 492.7 L 642.36 502.18 L 642.36 502.18 Q 633.96 502.06 629.7 502.06 L 629.7 502.06 L 629.7 502.06 Q 626.64 502.06 625.62 504.13 L 625.62 504.13 L 625.62 504.13 Q 624.6 506.2 624.6 512.5 L 624.6 512.5 L 624.6 512.5 Q 624.6 518.8 625.62 520.87 L 625.62 520.87 L 625.62 520.87 Q 626.64 522.94 629.7 522.94 L 629.7 522.94 L 629.7 522.94 Q 638.64 522.94 643.26 522.46 Z  M 662.66 502.36 L 662.66 502.36 L 662.66 502.36 Q 671.84 502.36 675.62 505.93 L 675.62 505.93 L 675.62 505.93 Q 679.4 509.5 679.4 518.26 L 679.4 518.26 L 679.4 518.26 Q 679.4 526.9 675.62 530.41 L 675.62 530.41 L 675.62 530.41 Q 671.84 533.92 662.66 533.92 L 662.66 533.92 L 662.66 533.92 Q 653.42 533.92 649.64 530.41 L 649.64 530.41 L 649.64 530.41 Q 645.86 526.9 645.86 518.26 L 645.86 518.26 L 645.86 518.26 Q 645.86 509.5 649.64 505.93 L 649.64 505.93 L 649.64 505.93 Q 653.42 502.36 662.66 502.36 Z  M 662.66 510.88 L 662.66 510.88 L 662.66 510.88 Q 660.44 510.88 659.75 512.26 L 659.75 512.26 L 659.75 512.26 Q 659.06 513.64 659.06 518.26 L 659.06 518.26 L 659.06 518.26 Q 659.06 522.7 659.75 524.05 L 659.75 524.05 L 659.75 524.05 Q 660.44 525.4 662.66 525.4 L 662.66 525.4 L 662.66 525.4 Q 664.82 525.4 665.51 524.05 L 665.51 524.05 L 665.51 524.05 Q 666.2 522.7 666.2 518.26 L 666.2 518.26 L 666.2 518.26 Q 666.2 513.64 665.51 512.26 L 665.51 512.26 L 665.51 512.26 Q 664.82 510.88 662.66 510.88 Z  M 698.32 502.36 L 698.32 502.36 L 698.32 502.36 Q 707.5 502.36 711.28 505.93 L 711.28 505.93 L 711.28 505.93 Q 715.06 509.5 715.06 518.26 L 715.06 518.26 L 715.06 518.26 Q 715.06 526.9 711.28 530.41 L 711.28 530.41 L 711.28 530.41 Q 707.5 533.92 698.32 533.92 L 698.32 533.92 L 698.32 533.92 Q 689.08 533.92 685.3 530.41 L 685.3 530.41 L 685.3 530.41 Q 681.52 526.9 681.52 518.26 L 681.52 518.26 L 681.52 518.26 Q 681.52 509.5 685.3 505.93 L 685.3 505.93 L 685.3 505.93 Q 689.08 502.36 698.32 502.36 Z  M 698.32 510.88 L 698.32 510.88 L 698.32 510.88 Q 696.1 510.88 695.41 512.26 L 695.41 512.26 L 695.41 512.26 Q 694.72 513.64 694.72 518.26 L 694.72 518.26 L 694.72 518.26 Q 694.72 522.7 695.41 524.05 L 695.41 524.05 L 695.41 524.05 Q 696.1 525.4 698.32 525.4 L 698.32 525.4 L 698.32 525.4 Q 700.48 525.4 701.17 524.05 L 701.17 524.05 L 701.17 524.05 Q 701.86 522.7 701.86 518.26 L 701.86 518.26 L 701.86 518.26 Q 701.86 513.64 701.17 512.26 L 701.17 512.26 L 701.17 512.26 Q 700.48 510.88 698.32 510.88 Z  M 738.84 533.2 L 732 520.24 L 730.38 520.24 L 730.38 520.24 Q 730.8 522.94 730.8 524.62 L 730.8 524.62 L 730.8 533.2 L 718.2 533.2 L 718.2 491.2 L 730.8 491.2 L 730.8 507.28 L 730.8 507.28 Q 730.8 510.1 730.32 513.16 L 730.32 513.16 L 732.06 513.16 L 737.76 503.2 L 751.56 503.2 L 745.26 513.04 L 745.26 513.04 Q 744 515.32 741.78 516.64 L 741.78 516.64 L 741.78 516.88 L 741.78 516.88 Q 742.5 517.24 743.55 518.47 L 743.55 518.47 L 743.55 518.47 Q 744.6 519.7 745.26 520.9 L 745.26 520.9 L 752.7 533.2 L 738.84 533.2 L 738.84 533.2 Z  M 784.82 492.4 L 784.22 501.52 L 769.76 501.52 L 769.76 501.52 Q 768.56 501.52 767.87 502.12 L 767.87 502.12 L 767.87 502.12 Q 767.18 502.72 767.18 503.68 L 767.18 503.68 L 767.18 508.54 L 782 508.54 L 782 517.18 L 767.18 517.18 L 767.18 533.2 L 754.16 533.2 L 754.16 500.98 L 754.16 500.98 Q 754.16 496.78 756.92 494.17 L 756.92 494.17 L 756.92 494.17 Q 759.68 491.56 764 491.56 L 764 491.56 L 764 491.56 Q 779.12 491.56 784.82 492.4 L 784.82 492.4 L 784.82 492.4 Z  M 802 502.36 L 802 502.36 L 802 502.36 Q 811.18 502.36 814.96 505.93 L 814.96 505.93 L 814.96 505.93 Q 818.74 509.5 818.74 518.26 L 818.74 518.26 L 818.74 518.26 Q 818.74 526.9 814.96 530.41 L 814.96 530.41 L 814.96 530.41 Q 811.18 533.92 802 533.92 L 802 533.92 L 802 533.92 Q 792.76 533.92 788.98 530.41 L 788.98 530.41 L 788.98 530.41 Q 785.2 526.9 785.2 518.26 L 785.2 518.26 L 785.2 518.26 Q 785.2 509.5 788.98 505.93 L 788.98 505.93 L 788.98 505.93 Q 792.76 502.36 802 502.36 Z  M 802 510.88 L 802 510.88 L 802 510.88 Q 799.78 510.88 799.09 512.26 L 799.09 512.26 L 799.09 512.26 Q 798.4 513.64 798.4 518.26 L 798.4 518.26 L 798.4 518.26 Q 798.4 522.7 799.09 524.05 L 799.09 524.05 L 799.09 524.05 Q 799.78 525.4 802 525.4 L 802 525.4 L 802 525.4 Q 804.16 525.4 804.85 524.05 L 804.85 524.05 L 804.85 524.05 Q 805.54 522.7 805.54 518.26 L 805.54 518.26 L 805.54 518.26 Q 805.54 513.64 804.85 512.26 L 804.85 512.26 L 804.85 512.26 Q 804.16 510.88 802 510.88 Z  M 844.56 502.36 L 846.3 502.36 L 845.22 513.88 L 842.04 513.88 L 842.04 513.88 Q 838.86 513.88 834.48 514.48 L 834.48 514.48 L 834.48 533.2 L 821.88 533.2 L 821.88 503.2 L 831.72 503.2 L 832.86 507.58 L 832.86 507.58 Q 838.44 502.36 844.56 502.36 L 844.56 502.36 L 844.56 502.36 Z  M 891.56 491.8 L 904.4 491.8 L 899.24 529.72 L 899.24 529.72 Q 899 531.28 897.74 532.24 L 897.74 532.24 L 897.74 532.24 Q 896.48 533.2 894.8 533.2 L 894.8 533.2 L 883.76 533.2 L 883.76 533.2 Q 882.08 533.2 880.79 532.24 L 880.79 532.24 L 880.79 532.24 Q 879.5 531.28 879.32 529.72 L 879.32 529.72 L 876.5 506.86 L 876.5 506.86 Q 876.26 505 876.02 500.8 L 876.02 500.8 L 875 500.8 L 875 500.8 Q 874.76 505 874.52 506.92 L 874.52 506.92 L 871.76 529.72 L 871.76 529.72 Q 871.58 531.28 870.29 532.24 L 870.29 532.24 L 870.29 532.24 Q 869 533.2 867.32 533.2 L 867.32 533.2 L 856.22 533.2 L 856.22 533.2 Q 854.54 533.2 853.28 532.24 L 853.28 532.24 L 853.28 532.24 Q 852.02 531.28 851.78 529.72 L 851.78 529.72 L 846.62 491.8 L 859.46 491.8 L 861.56 517.18 L 861.56 517.18 Q 861.8 521.26 861.8 524.08 L 861.8 524.08 L 862.76 524.08 L 862.76 524.08 Q 863.6 518.2 863.72 517.12 L 863.72 517.12 L 866.48 495.64 L 866.48 495.64 Q 866.66 493.96 867.89 492.88 L 867.89 492.88 L 867.89 492.88 Q 869.12 491.8 870.86 491.8 L 870.86 491.8 L 880.16 491.8 L 880.16 491.8 Q 881.9 491.8 883.1 492.85 L 883.1 492.85 L 883.1 492.85 Q 884.3 493.9 884.54 495.64 L 884.54 495.64 L 887.36 517.24 L 887.36 517.24 Q 887.54 519.04 888.26 524.08 L 888.26 524.08 L 889.22 524.08 L 889.22 524.08 Q 889.22 522.4 889.52 517.3 L 889.52 517.3 L 891.56 491.8 L 891.56 491.8 Z  M 926.2 520.96 L 926.2 520.96 L 918.7 520.96 L 918.7 520.96 Q 919.06 522.82 920.17 523.54 L 920.17 523.54 L 920.17 523.54 Q 921.28 524.26 923.68 524.26 L 923.68 524.26 L 923.68 524.26 Q 929.56 524.26 935.86 523.6 L 935.86 523.6 L 937 531.16 L 937 531.16 Q 931.54 533.92 922.3 533.92 L 922.3 533.92 L 922.3 533.92 Q 913.12 533.92 909.16 530.11 L 909.16 530.11 L 909.16 530.11 Q 905.2 526.3 905.2 518.44 L 905.2 518.44 L 905.2 518.44 Q 905.2 509.62 909.04 505.99 L 909.04 505.99 L 909.04 505.99 Q 912.88 502.36 922.24 502.36 L 922.24 502.36 L 922.24 502.36 Q 930.52 502.36 934.15 505 L 934.15 505 L 934.15 505 Q 937.78 507.64 937.84 513.04 L 937.84 513.04 L 937.84 513.04 Q 937.9 517.3 935.29 519.13 L 935.29 519.13 L 935.29 519.13 Q 932.68 520.96 926.2 520.96 Z  M 918.46 515.02 L 918.46 515.02 L 922.66 515.02 L 922.66 515.02 Q 924.7 515.02 925.24 514.63 L 925.24 514.63 L 925.24 514.63 Q 925.78 514.24 925.78 512.74 L 925.78 512.74 L 925.78 512.74 Q 925.78 511.36 925.09 510.91 L 925.09 510.91 L 925.09 510.91 Q 924.4 510.46 922.6 510.46 L 922.6 510.46 L 922.6 510.46 Q 920.2 510.4 919.39 511.24 L 919.39 511.24 L 919.39 511.24 Q 918.58 512.08 918.46 515.02 Z  M 940.62 491.2 L 953.22 491.2 L 953.34 499.54 L 953.34 499.54 Q 953.46 503.32 952.44 506.74 L 952.44 506.74 L 952.44 506.74 Q 957.18 502.36 962.22 502.36 L 962.22 502.36 L 962.22 502.36 Q 968.46 502.36 971.01 505.93 L 971.01 505.93 L 971.01 505.93 Q 973.56 509.5 973.56 517.84 L 973.56 517.84 L 973.56 517.84 Q 973.56 521.2 972.93 523.81 L 972.93 523.81 L 972.93 523.81 Q 972.3 526.42 970.65 528.85 L 970.65 528.85 L 970.65 528.85 Q 969 531.28 965.67 532.6 L 965.67 532.6 L 965.67 532.6 Q 962.34 533.92 957.42 533.92 L 957.42 533.92 L 957.42 533.92 Q 953.34 533.92 948.15 533.26 L 948.15 533.26 L 948.15 533.26 Q 942.96 532.6 940.62 531.4 L 940.62 531.4 L 940.62 491.2 L 940.62 491.2 Z  M 953.22 512.56 L 953.22 512.56 L 953.22 525.22 L 953.22 525.22 Q 955.74 525.52 957.18 525.46 L 957.18 525.46 L 957.18 525.46 Q 959.16 525.34 959.88 523.87 L 959.88 523.87 L 959.88 523.87 Q 960.6 522.4 960.6 517.9 L 960.6 517.9 L 960.6 517.9 Q 960.6 514.12 959.88 512.95 L 959.88 512.95 L 959.88 512.95 Q 959.16 511.78 956.94 511.78 L 956.94 511.78 L 956.94 511.78 Q 955.2 511.78 953.22 512.56 Z " fill="rgb(255,255,255)"/></g></svg>