<svg version="1.1" viewBox="0.0 0.0 288.0 48.0" fill="none" stroke="none" stroke-linecap="square" stroke-miterlimit="10" xmlns:xlink="http://www.w3.org/1999/xlink" xmlns="http://www.w3.org/2000/svg"><clipPath id="p.0"><path d="m0 0l288.0 0l0 48.0l-288.0 0l0 -48.0z" clip-rule="nonzero"/></clipPath><g clip-path="url(#p.0)"><path fill="#000000" fill-opacity="0.0" d="m0 0l288.0 0l0 48.0l-288.0 0z" fill-rule="evenodd"/><path fill="#000000" fill-opacity="0.0" d="m4.897638 -12.448819l278.2047 0l0 72.72441l-278.2047 0z" fill-rule="evenodd"/><path fill="#ffffff" d="m32.53186 29.191807q0 1.265625 0.15625 2.046875q0.171875 0.78125 0.6875 1.203125q0.53125 0.40625 1.46875 0.578125q0.953125 0.171875 2.5625 0.203125l0 1.328125l-13.265623 0l0 -1.328125q1.09375 -0.03125 1.796875 -0.203125q0.703125 -0.171875 1.0625 -0.5625q0.375 -0.40625 0.5 -1.140625q0.140625 -0.734375 0.140625 -1.890625l0 -15.406251q0 -1.171875 -0.125 -1.875q-0.109375 -0.71875 -0.453125 -1.140625q-0.328125 -0.421875 -0.953125 -0.5625q-0.609375 -0.15625 -1.609375 -0.21875l0 -1.328125l20.406248 0l0.390625 7.03125l-1.390625 0q-0.203125 -1.4375 -0.59375 -2.421875q-0.375 -0.984375 -1.078125 -1.59375q-0.703125 -0.625 -1.8125 -0.890625q-1.09375 -0.265625 -2.6875 -0.265625l-4.59375 0q-0.609375 0 -0.609375 0.5625l0 9.640626q2.03125 0 3.3125 -0.171875q1.296875 -0.171875 2.0625 -0.640625q0.765625 -0.484375 1.09375 -1.3125q0.328125 -0.84375 0.46875 -2.21875l1.234375 0l0 10.4375l-1.234375 0q-0.203125 -1.40625 -0.578125 -2.25q-0.359375 -0.84375 -1.109375 -1.296875q-0.75 -0.453125 -2.015625 -0.609375q-1.265625 -0.171875 -3.234375 -0.171875l0 6.46875zm23.071365 -12.640625q2.0 0 3.78125 0.6875q1.78125 0.6875 3.125 1.890625q1.359375 1.1875 2.140625 2.84375q0.78125 1.640625 0.78125 3.609375q0 2.03125 -0.78125 3.734375q-0.78125 1.703125 -2.140625 2.9375q-1.34375 1.234375 -3.125 1.9375q-1.78125 0.6875 -3.78125 0.6875q-1.96875 0 -3.734375 -0.671875q-1.765625 -0.6875 -3.109375 -1.921875q-1.328125 -1.234375 -2.09375 -2.953125q-0.765625 -1.71875 -0.765625 -3.75q0 -1.96875 0.765625 -3.625q0.765625 -1.671875 2.09375 -2.859375q1.34375 -1.203125 3.109375 -1.875q1.765625 -0.671875 3.734375 -0.671875zm0 1.9375q-1.0 0 -1.84375 0.515625q-0.828125 0.515625 -1.421875 1.453125q-0.578125 0.921875 -0.890625 2.25q-0.3125 1.3125 -0.3125 2.90625q0 1.671875 0.3125 3.015625q0.3125 1.328125 0.890625 2.265625q0.59375 0.921875 1.40625 1.4375q0.8125 0.515625 1.859375 0.515625q1.03125 0 1.875 -0.515625q0.859375 -0.515625 1.453125 -1.453125q0.59375 -0.953125 0.921875 -2.28125q0.34375 -1.34375 0.34375 -2.984375q0 -1.59375 -0.34375 -2.890625q-0.328125 -1.296875 -0.921875 -2.25q-0.59375 -0.953125 -1.453125 -1.46875q-0.84375 -0.515625 -1.875 -0.515625zm19.293396 10.59375q0 1.34375 0.09375 2.140625q0.109375 0.796875 0.40625 1.234375q0.296875 0.421875 0.859375 0.578125q0.578125 0.15625 1.53125 0.1875l0 1.328125l-10.484375 0l0 -1.328125q0.921875 -0.03125 1.5 -0.21875q0.59375 -0.1875 0.90625 -0.59375q0.3125 -0.421875 0.421875 -1.171875q0.125 -0.75 0.125 -1.921875l0 -13.765626q0 -1.9375 -0.0625 -3.171875q-0.0625 -1.25 -0.171875 -1.71875q-0.15625 -0.84375 -0.75 -1.109375q-0.578125 -0.265625 -2.109375 -0.265625l0 -1.125l7.734375 -1.2656245l0 22.1875zm11.831467 0q0 1.34375 0.09375 2.140625q0.109375 0.796875 0.40625 1.234375q0.296875 0.421875 0.859375 0.578125q0.578125 0.15625 1.53125 0.1875l0 1.328125l-10.484375 0l0 -1.328125q0.921875 -0.03125 1.5 -0.21875q0.59375 -0.1875 0.90625 -0.59375q0.3125 -0.421875 0.421875 -1.171875q0.125 -0.75 0.125 -1.921875l0 -13.765626q0 -1.9375 -0.0625 -3.171875q-0.0625 -1.25 -0.171875 -1.71875q-0.15625 -0.84375 -0.75 -1.109375q-0.578125 -0.265625 -2.109375 -0.265625l0 -1.125l7.734375 -1.2656245l0 22.1875zm12.692932 10.703125q-0.359375 0.734375 -0.921875 1.359375q-0.546875 0.640625 -1.234375 1.078125q-0.671875 0.453125 -1.40625 0.71875q-0.734375 0.28125 -1.46875 0.28125q-1.09375 0 -1.765625 -0.546875q-0.671875 -0.53125 -0.671875 -1.421875q0 -0.84375 0.578125 -1.3125q0.59375 -0.453125 1.890625 -0.5625q2.96875 -0.234375 3.84375 -1.859375l0.890625 -1.734375l-5.890625 -14.59375q-0.40625 -0.96875 -0.6875 -1.53125q-0.28125 -0.578125 -0.625 -0.890625q-0.328125 -0.3125 -0.765625 -0.40625q-0.421875 -0.109375 -1.0625 -0.140625l0 -1.328125l10.09375 0l0 1.328125q-1.296875 0 -1.8125 0.25q-0.515625 0.25 -0.515625 0.90625q0 0.28125 0.078125 0.625q0.09375 0.34375 0.21875 0.71875l3.40625 9.734375l0.125 0l2.875 -6.5q0.4375 -1.03125 0.734375 -1.71875q0.296875 -0.6875 0.4375 -1.171875q0.15625 -0.484375 0.21875 -0.78125q0.078125 -0.296875 0.078125 -0.59375q0 -0.875 -0.484375 -1.171875q-0.484375 -0.296875 -1.953125 -0.296875l0 -1.328125l8.03125 0l0 1.328125q-0.671875 0 -1.140625 0.1875q-0.453125 0.171875 -0.9375 0.75q-0.484375 0.5625 -1.078125 1.6875q-0.578125 1.109375 -1.4375 2.9375l-7.640625 16.0zm13.7955475 -24.625q1.203125 -0.9375 1.84375 -1.890625q0.65625 -0.953125 0.65625 -1.78125q-0.125 0.0625 -0.34375 0.078125q-0.21875 0.015625 -0.390625 0.015625q-0.765625 0 -1.28125 -0.609375q-0.515625 -0.625 -0.515625 -1.515625q0 -1.109375 0.734375 -1.8281245q0.734375 -0.734375 1.828125 -0.734375q1.171875 0 1.828125 0.84375q0.671875 0.8437495 0.671875 2.2812495q0 1.703125 -1.03125 3.375q-1.03125 1.65625 -3.03125 3.156251l-0.96875 -1.390626zm8.432053 19.390625l-1.03125 0l0 -6.0625l1.40625 0q0.5625 2.390625 1.625 3.5q1.078125 1.09375 2.765625 1.09375q1.234375 0 1.921875 -0.515625q0.6875 -0.515625 0.6875 -1.421875q0 -0.921875 -0.84375 -1.796875q-0.828125 -0.890625 -2.6875 -1.890625q-2.546875 -1.375 -3.640625 -2.71875q-1.09375 -1.359375 -1.09375 -3.046875q0 -1.109375 0.40625 -2.046875q0.421875 -0.953125 1.140625 -1.65625q0.71875 -0.703125 1.71875 -1.078125q1.0 -0.390625 2.15625 -0.390625q1.046875 0 2.0625 0.296875q1.015625 0.296875 1.78125 0.84375l0.59375 -0.8125l0.875 0l0 5.03125l-1.3125 0q-0.765625 -1.890625 -1.578125 -2.71875q-0.8125 -0.84375 -1.984375 -0.84375q-0.9375 0 -1.484375 0.5q-0.546875 0.5 -0.546875 1.34375q0 0.921875 0.8125 1.765625q0.828125 0.828125 2.71875 1.828125q1.328125 0.734375 2.296875 1.4375q0.96875 0.6875 1.5625 1.40625q0.609375 0.71875 0.890625 1.5q0.28125 0.78125 0.28125 1.6875q0 1.171875 -0.4375 2.109375q-0.421875 0.921875 -1.234375 1.59375q-0.796875 0.65625 -1.921875 1.03125q-1.109375 0.359375 -2.46875 0.359375q-1.4375 0 -2.671875 -0.375q-1.234375 -0.390625 -2.03125 -1.125l-0.734375 1.171875zm40.9274 -6.234375l7.703125 -19.421875l9.734375 0l0 1.328125q-1.109375 0 -1.796875 0.21875q-0.671875 0.21875 -1.046875 0.78125q-0.359375 0.5625 -0.484375 1.546875q-0.109375 0.984375 -0.109375 2.484375l0 12.937501q0 1.65625 0.125 2.625q0.140625 0.96875 0.53125 1.5q0.40625 0.53125 1.15625 0.703125q0.75 0.171875 1.984375 0.203125l0 1.328125l-12.53125 0l0 -1.328125q1.234375 -0.03125 1.984375 -0.21875q0.75 -0.1875 1.171875 -0.6875q0.421875 -0.5 0.546875 -1.40625q0.140625 -0.921875 0.140625 -2.484375l0 -15.609376l-0.171875 0l-8.96875 22.0625l-2.46875 0l-9.265625 -22.0625l-0.125 0l0 15.375001q0 1.65625 0.125 2.625q0.140625 0.96875 0.53125 1.5q0.40625 0.53125 1.15625 0.703125q0.75 0.171875 1.984375 0.203125l0 1.328125l-10.265625 0l0 -1.328125q1.234375 -0.03125 2.0 -0.21875q0.765625 -0.1875 1.171875 -0.6875q0.421875 -0.5 0.546875 -1.40625q0.140625 -0.921875 0.140625 -2.484375l0 -13.406251q0 -1.40625 -0.140625 -2.328125q-0.125 -0.9375 -0.5 -1.484375q-0.359375 -0.546875 -1.046875 -0.765625q-0.671875 -0.21875 -1.8125 -0.21875l0 -1.328125l10.109375 0l7.765625 19.421875l0.125 0zm27.363739 0.765625q0 1.34375 0.09375 2.140625q0.109375 0.796875 0.40625 1.234375q0.296875 0.421875 0.859375 0.578125q0.578125 0.15625 1.546875 0.1875l0 1.328125l-10.5 0l0 -1.328125q0.9375 -0.03125 1.515625 -0.21875q0.578125 -0.1875 0.890625 -0.59375q0.328125 -0.421875 0.4375 -1.171875q0.125 -0.75 0.125 -1.921875l0 -4.09375q0 -1.9375 -0.078125 -3.1875q-0.0625 -1.25 -0.15625 -1.71875q-0.171875 -0.828125 -0.765625 -1.09375q-0.578125 -0.265625 -2.109375 -0.265625l0 -1.140625l7.734375 -1.265625l0 12.53125zm-4.890625 -19.59375q0 -1.09375 0.75 -1.8437495q0.75 -0.75 1.8125 -0.75q1.09375 0 1.84375 0.75q0.75 0.7499995 0.75 1.8437495q0 1.0625 -0.75 1.8125q-0.75 0.75 -1.84375 0.75q-1.0625 0 -1.8125 -0.75q-0.75 -0.75 -0.75 -1.8125zm16.953308 19.890625q0 1.3125 0.109375 2.0625q0.125 0.75 0.484375 1.15625q0.375 0.390625 1.078125 0.515625q0.703125 0.109375 1.859375 0.109375l0 1.328125l-11.125 0l0 -1.328125q1.0 -0.078125 1.59375 -0.203125q0.609375 -0.140625 0.90625 -0.53125q0.296875 -0.40625 0.375 -1.15625q0.09375 -0.75 0.09375 -2.015625l0 -4.0625q0 -2.0625 -0.109375 -3.296875q-0.09375 -1.234375 -0.4375 -1.90625q-0.328125 -0.671875 -0.953125 -0.875q-0.609375 -0.21875 -1.609375 -0.21875l0 -1.171875l6.671875 -1.234375l0.53125 3.828125l0.140625 0q0.890625 -1.765625 2.359375 -2.796875q1.46875 -1.03125 3.109375 -1.03125q1.265625 0 2.0625 0.640625q0.796875 0.625 0.796875 1.59375q0 1.0625 -0.625 1.796875q-0.609375 0.734375 -1.671875 0.734375q-0.5 0 -0.90625 -0.1875q-0.390625 -0.203125 -0.71875 -0.453125q-0.3125 -0.25 -0.625 -0.46875q-0.3125 -0.21875 -0.65625 -0.21875q-0.625 0 -1.203125 0.84375q-0.5625 0.828125 -0.921875 2.21875q-0.265625 1.0 -0.4375 2.25q-0.171875 1.25 -0.171875 2.484375l0 1.59375zm16.597382 0q0 1.3125 0.109375 2.0625q0.125 0.75 0.484375 1.15625q0.375 0.390625 1.078125 0.515625q0.703125 0.109375 1.859375 0.109375l0 1.328125l-11.125 0l0 -1.328125q1.0 -0.078125 1.59375 -0.203125q0.609375 -0.140625 0.90625 -0.53125q0.296875 -0.40625 0.375 -1.15625q0.09375 -0.75 0.09375 -2.015625l0 -4.0625q0 -2.0625 -0.109375 -3.296875q-0.09375 -1.234375 -0.4375 -1.90625q-0.328125 -0.671875 -0.953125 -0.875q-0.609375 -0.21875 -1.609375 -0.21875l0 -1.171875l6.671875 -1.234375l0.53125 3.828125l0.140625 0q0.890625 -1.765625 2.359375 -2.796875q1.46875 -1.03125 3.109375 -1.03125q1.265625 0 2.0625 0.640625q0.796875 0.625 0.796875 1.59375q0 1.0625 -0.625 1.796875q-0.609375 0.734375 -1.671875 0.734375q-0.5 0 -0.90625 -0.1875q-0.390625 -0.203125 -0.71875 -0.453125q-0.3125 -0.25 -0.625 -0.46875q-0.3125 -0.21875 -0.65625 -0.21875q-0.625 0 -1.203125 0.84375q-0.5625 0.828125 -0.921875 2.21875q-0.265625 1.0 -0.4375 2.25q-0.171875 1.25 -0.171875 2.484375l0 1.59375zm18.774445 -12.828125q2.0 0 3.78125 0.6875q1.78125 0.6875 3.125 1.890625q1.359375 1.1875 2.140625 2.84375q0.78125 1.640625 0.78125 3.609375q0 2.03125 -0.78125 3.734375q-0.78125 1.703125 -2.140625 2.9375q-1.34375 1.234375 -3.125 1.9375q-1.78125 0.6875 -3.78125 0.6875q-1.96875 0 -3.734375 -0.671875q-1.765625 -0.6875 -3.109375 -1.921875q-1.328125 -1.234375 -2.09375 -2.953125q-0.765625 -1.71875 -0.765625 -3.75q0 -1.96875 0.765625 -3.625q0.765625 -1.671875 2.09375 -2.859375q1.34375 -1.203125 3.109375 -1.875q1.765625 -0.671875 3.734375 -0.671875zm0 1.9375q-1.0 0 -1.84375 0.515625q-0.828125 0.515625 -1.421875 1.453125q-0.578125 0.921875 -0.890625 2.25q-0.3125 1.3125 -0.3125 2.90625q0 1.671875 0.3125 3.015625q0.3125 1.328125 0.890625 2.265625q0.59375 0.921875 1.40625 1.4375q0.8125 0.515625 1.859375 0.515625q1.03125 0 1.875 -0.515625q0.859375 -0.515625 1.453125 -1.453125q0.59375 -0.953125 0.921875 -2.28125q0.34375 -1.34375 0.34375 -2.984375q0 -1.59375 -0.34375 -2.890625q-0.328125 -1.296875 -0.921875 -2.25q-0.59375 -0.953125 -1.453125 -1.46875q-0.84375 -0.515625 -1.875 -0.515625zm19.652771 10.890625q0 1.3125 0.109375 2.0625q0.125 0.75 0.484375 1.15625q0.375 0.390625 1.078125 0.515625q0.703125 0.109375 1.859375 0.109375l0 1.328125l-11.125 0l0 -1.328125q1.0 -0.078125 1.59375 -0.203125q0.609375 -0.140625 0.90625 -0.53125q0.296875 -0.40625 0.375 -1.15625q0.09375 -0.75 0.09375 -2.015625l0 -4.0625q0 -2.0625 -0.109375 -3.296875q-0.09375 -1.234375 -0.4375 -1.90625q-0.328125 -0.671875 -0.953125 -0.875q-0.609375 -0.21875 -1.609375 -0.21875l0 -1.171875l6.671875 -1.234375l0.53125 3.828125l0.140625 0q0.890625 -1.765625 2.359375 -2.796875q1.46875 -1.03125 3.109375 -1.03125q1.265625 0 2.0625 0.640625q0.796875 0.625 0.796875 1.59375q0 1.0625 -0.625 1.796875q-0.609375 0.734375 -1.671875 0.734375q-0.5 0 -0.90625 -0.1875q-0.390625 -0.203125 -0.71875 -0.453125q-0.3125 -0.25 -0.625 -0.46875q-0.3125 -0.21875 -0.65625 -0.21875q-0.625 0 -1.203125 0.84375q-0.5625 0.828125 -0.921875 2.21875q-0.265625 1.0 -0.4375 2.25q-0.171875 1.25 -0.171875 2.484375l0 1.59375z" fill-rule="nonzero"/></g></svg>